<svg width="327" height="24" viewBox="0 0 327 24" fill="none" xmlns="http://www.w3.org/2000/svg">
    <path d="M9 21V18H6V15H3V12H0V9H3V6H6V3H9V0H15V3H12V6H9V9H6V12H9V15H12V18H15V21H9ZM306 0V3H303V0H306ZM300 3H303V6H300V3ZM297 6H300V9H297V6ZM294 9H297V12H294V9ZM291 12H294V15H291V12ZM288 15H291V18H288V15ZM285 18H288V21H285V18ZM312 21V18H315V15H318V12H321V9H318V6H315V3H312V0H318V3H321V6H324V9H327V12H324V15H321V18H318V21H312Z" fill="#00A8E8"/>
    <path d="M21 21V6H24V3H27V0H36V3H39V6H42V21H36V15H27V21H21ZM27 12H36V6H33V3H30V6H27V12ZM48 21V18H54V3H51V0H60V18H66V21H48ZM72 21V18H69V9H72V6H87V9H90V15H75V18H87V21H72ZM75 12H84V9H75V12ZM96 24V21H108V18H96V15H93V9H96V6H114V21H111V24H96ZM99 15H108V9H99V15ZM120 21V18H117V9H120V6H135V9H138V18H135V21H120ZM123 18H132V9H123V18ZM141 21V6H159V9H162V21H156V9H147V21H141ZM168 21V18H165V9H168V6H186V9H171V18H186V21H168ZM192 21V18H189V9H192V6H207V9H210V15H195V18H207V21H192ZM195 12H204V9H195V12ZM216 21V18H222V3H219V0H228V18H234V21H216ZM246 3V0H252V3H246ZM240 21V18H246V9H243V6H252V18H258V21H240ZM261 21V18H276V15H264V12H261V9H264V6H279V9H267V12H279V15H282V18H279V21H261Z" fill="white"/>
    </svg>
    